<svg xmlns="http://www.w3.org/2000/svg" viewBox="0 0 270 64" fill="none">
  <!-- MEWA Ministry Symbol -->
  <g transform="translate(6, 6)">
    <!-- Water Arc (Cyan / Deep Blue) -->
    <path d="M26 4C14 4 4 14 4 26c0 8 4 15 10 19-3-5-4-11-2-17 3-9 11-15 20-17-2-4-7-7-12-7z" fill="#0082CA" />
    
    <!-- Environment Leaf Arc (Green) -->
    <path d="M26 48c12 0 22-10 22-22 0-8-4-15-10-19 3 5 4 11 2 17-3 9-11 15-20 17 2 4 7 7 12 7z" fill="#137038" />
    
    <!-- Central Saudi Palm & Swords (Gold) -->
    <path d="M26 30V18" stroke="#B8860B" stroke-width="2" stroke-linecap="round" />
    <path d="M26 18c-3-3-7-1-9 1 3 0 6 1 8 2" stroke="#B8860B" stroke-width="1.4" fill="none" stroke-linecap="round" />
    <path d="M26 18c3-3 7-1 9 1-3 0-6 1-8 2" stroke="#B8860B" stroke-width="1.4" fill="none" stroke-linecap="round" />
    <path d="M26 21c-4-2-7-1-8 1 3 0 6 0 7 1.5" stroke="#B8860B" stroke-width="1.2" fill="none" />
    <path d="M26 21c4-2 7-1 8 1-3 0-6 0-7 1.5" stroke="#B8860B" stroke-width="1.2" fill="none" />
    <path d="M19 34l14-8m-14 0l14 8" stroke="#B8860B" stroke-width="1.5" stroke-linecap="round" />
  </g>

  <!-- Typography -->
  <g>
    <text x="68" y="27" font-family="'Cairo', 'Tajawal', sans-serif" font-weight="700" font-size="13" fill="#137038">وزارة البيئة والمياه والزراعة</text>
    <text x="68" y="42" font-family="system-ui, -apple-system, sans-serif" font-weight="600" font-size="8.5" letter-spacing="0.5" fill="#4B6358">MINISTRY OF ENVIRONMENT, WATER &amp; AGRICULTURE</text>
  </g>
</svg>
